<?xml version="1.0" encoding="UTF-8" standalone="no"?>
<!-- Created with Inkscape (http://www.inkscape.org/) -->

<svg
   xmlns:dc="http://purl.org/dc/elements/1.1/"
   xmlns:cc="http://creativecommons.org/ns#"
   xmlns:rdf="http://www.w3.org/1999/02/22-rdf-syntax-ns#"
   xmlns:svg="http://www.w3.org/2000/svg"
   xmlns="http://www.w3.org/2000/svg"
   xmlns:sodipodi="http://sodipodi.sourceforge.net/DTD/sodipodi-0.dtd"
   xmlns:inkscape="http://www.inkscape.org/namespaces/inkscape"
   id="svg7384"
   height="16"
   width="16"
   version="1.1"
   inkscape:version="0.48.4 r9939"
   sodipodi:docname="sound-left.svg">
  <defs
     id="defs14" />
  <sodipodi:namedview
     pagecolor="#ffffff"
     bordercolor="#666666"
     borderopacity="1"
     objecttolerance="10"
     gridtolerance="10"
     guidetolerance="10"
     inkscape:pageopacity="0"
     inkscape:pageshadow="2"
     inkscape:window-width="640"
     inkscape:window-height="480"
     id="namedview12"
     showgrid="false"
     inkscape:zoom="14.75"
     inkscape:cx="8"
     inkscape:cy="8"
     inkscape:window-x="0"
     inkscape:window-y="27"
     inkscape:window-maximized="0"
     inkscape:current-layer="svg7384" />
  <metadata
     id="metadata90">
    <rdf:RDF>
      <cc:Work
         rdf:about="">
        <dc:format>image/svg+xml</dc:format>
        <dc:type
           rdf:resource="http://purl.org/dc/dcmitype/StillImage" />
        <dc:title>Gnome Symbolic Icon Theme</dc:title>
      </cc:Work>
    </rdf:RDF>
  </metadata>
  <title
     id="title9167">Gnome Symbolic Icon Theme</title>
  <g
     id="layer10"
     transform="matrix(-1,0,0,1,177.00664,-467)"
     style="fill:#2e3436">
    <path
       id="path5533-7"
       style="color:#bebebe;fill:#2e3436"
       d="m 168.43,468 -3.8438,4.0312 h -3.5625 v 6.125 h 3.5625 l 3.9375,3.8438 0.5,-0.0312 v -13.938 z"
       inkscape:connector-curvature="0" />
    <path
       id="path8311"
       style="text-indent:0;text-transform:none;block-progression:tb;color:#000000;fill:#2e3436"
       d="m 173.81,468 a 1.0001,1.0001 0 0 0 -0.59375,0.28125 l -2,2 a 1.0165,1.0165 0 1 0 1.4375,1.4375 l 2,-2 a 1.0001,1.0001 0 0 0 -0.85,-1.72 z"
       inkscape:connector-curvature="0" />
    <path
       id="path9081"
       style="text-indent:0;text-transform:none;block-progression:tb;color:#000000;fill:#2e3436"
       d="m 171.72,478 a 1.0001,1.0001 0 0 0 -0.5,1.7188 l 2,2 a 1.0165,1.0165 0 1 0 1.4375,-1.4375 l -2,-2 a 1.0001,1.0001 0 0 0 -0.94,-0.28 z"
       inkscape:connector-curvature="0" />
    <path
       id="path9083"
       style="text-indent:0;text-transform:none;block-progression:tb;color:#000000;fill:#2e3436"
       d="m 172.75,474.03 a 1.0044,1.0044 0 1 0 0.1875,2 h 3.0312 a 1.0001,1.0001 0 1 0 0,-2 h -3.0312 a 1.0001,1.0001 0 0 0 -0.1875,0 z"
       inkscape:connector-curvature="0" />
    <rect
       id="rect9102"
       style="color:#000000;fill:#2e3436"
       height="1"
       width="1"
       y="471"
       x="170.94" />
    <rect
       id="rect9104"
       style="color:#000000;fill:#2e3436"
       height="1"
       width="1"
       y="478"
       x="170.94" />
  </g>
</svg>
